<svg xmlns="http://www.w3.org/2000/svg" width="21" height="19" fill="none" viewBox="0 0 21 19"><path stroke="#7D7D7D" stroke-miterlimit="22.93" stroke-width=".94" d="M2.44 4.5h16.04c1.1 0 1.97.89 1.97 1.97v9.52c0 1.1-.89 1.97-1.97 1.97H2.44c-1.1 0-1.97-.89-1.97-1.97V6.47c0-1.1.9-1.97 1.97-1.97Z" clip-rule="evenodd"/><path stroke="#7D7D7D" stroke-miterlimit="22.93" stroke-width=".94" d="M20.47 9.48h-4.16a1.75 1.75 0 1 0 0 3.5h4.16V9.46v.02Z" clip-rule="evenodd"/><path fill="#7D7D7D" fill-rule="evenodd" stroke="#7D7D7D" stroke-miterlimit="22.93" stroke-width=".94" d="M16.18 10.81c.23 0 .42.18.42.42s-.19.42-.42.42a.42.42 0 0 1-.42-.42c0-.24.18-.42.42-.42Z" clip-rule="evenodd"/><path stroke="#7D7D7D" stroke-miterlimit="22.93" stroke-width=".94" d="m5.17 4.5 7.7-3.9a1.3 1.3 0 0 1 1.78.65l1.51 3.25"/></svg>