<svg xmlns="http://www.w3.org/2000/svg" width="21" height="21" fill="none" viewBox="0 0 21 21"><path fill="#7A7B7B" d="M9.65 13.98h1.4v1.46h-1.4v-1.46ZM7.28 8.34c0-1.01.28-1.84.85-2.46a3.05 3.05 0 0 1 2.36-.93c.93 0 1.67.27 2.22.8.56.52.85 1.2.85 2.02 0 .5-.1.9-.3 1.2-.2.31-.63.78-1.24 1.37-.45.44-.74.81-.87 1.11-.14.3-.2.76-.2 1.35H9.68c0-.67.09-1.21.24-1.62.15-.4.5-.87 1.04-1.41l.58-.56c.16-.15.3-.32.4-.5a1.81 1.81 0 0 0-.13-2.14c-.27-.34-.73-.5-1.37-.5-.79 0-1.33.28-1.63.87-.17.32-.27.8-.29 1.4H7.26h.02Z"/><path stroke="#7A7B7B" stroke-miterlimit="22.93" stroke-width=".94" d="M10.47.47c5.53 0 10 4.37 10 9.74a9.87 9.87 0 0 1-10 9.73c-5.52 0-10-4.36-10-9.73a9.87 9.87 0 0 1 10-9.74Z" clip-rule="evenodd"/></svg>