<svg xmlns="http://www.w3.org/2000/svg" width="21" height="19" fill="none" viewBox="0 0 21 19"><path fill="#7D7D7D" d="M18.22 10.84c-.26 0-.5-.04-.74-.1-.19-.06-.32-.22-.32-.4V6.22c0-.18.13-.34.32-.39.23-.06.48-.1.74-.1 1.5 0 2.74 1.15 2.74 2.56 0 1.41-1.23 2.56-2.74 2.56Zm-.17-.83h.17c1.02 0 1.86-.79 1.86-1.75s-.84-1.75-1.86-1.75h-.17v3.5Z"/><path fill="#7D7D7D" d="M16.74 16.54h-.3c-.73 0-1.32-.56-1.32-1.23V1.21c0-.67.59-1.22 1.31-1.22h.3c.73 0 1.32.55 1.32 1.23V15.3c0 .67-.6 1.23-1.31 1.23ZM16.44.8c-.24 0-.44.19-.44.4v14.1c0 .22.2.4.43.4h.3c.24 0 .44-.18.44-.4V1.21c0-.21-.2-.4-.43-.4h-.3ZM2.47 10.68h-.05c-.67-.08-1.34-.11-1.98-.11-.24 0-.44-.19-.44-.4V6.42c0-.22.2-.4.44-.4.64 0 1.3-.04 1.98-.12a.4.4 0 0 1 .34.1c.1.08.15.18.15.3v3.99c0 .12-.05.23-.15.3a.46.46 0 0 1-.29.1v-.02ZM.86 9.74l1.18.07V6.73c-.4.04-.8.07-1.18.07v2.94Z"/><path fill="#7D7D7D" d="M15.56 15.75a.48.48 0 0 1-.25-.07 35.77 35.77 0 0 0-10.47-4.5c-.18-.06-.37-.1-.53-.14-.78-.19-1.43-.3-1.89-.37a.42.42 0 0 1-.38-.4v-4c0-.2.16-.38.38-.4a22.5 22.5 0 0 0 2.42-.48A35.6 35.6 0 0 0 15.31.88c.13-.09.3-.1.45-.02.15.07.24.2.24.36v14.12c0 .15-.09.29-.24.36a.45.45 0 0 1-.2.05ZM2.9 9.9c.44.07.98.19 1.6.34.17.03.35.08.54.13a35.39 35.39 0 0 1 10.07 4.2V1.99A36.34 36.34 0 0 1 5.06 6.2c-.87.22-1.58.37-2.15.46v3.28-.02Z"/><path fill="#7D7D7D" d="M6.86 18.47H4.41c-.24 0-.44-.18-.44-.4v-7.44c0-.11.07-.23.17-.32.1-.08.23-.1.37-.08a35.39 35.39 0 0 1 2.5.67c.19.05.3.22.3.39v6.78c0 .22-.2.4-.43.4h-.02Zm-2.02-.82h1.58v-6.07c-.5-.16-1.02-.3-1.58-.44v6.5Z"/></svg>