<svg xmlns="http://www.w3.org/2000/svg" width="21" height="19" fill="none" viewBox="0 0 21 19"><path stroke="#66C" stroke-miterlimit="22.93" stroke-width=".94" d="m5.9 12.2-2.37 1.65v1.63h16.44M.22.4l2.69 1.48.49 1.7 2.48 8.62h12.36c.79 0 3.05-6.7 1.96-6.82L3.7 3.58"/><path fill="#66C" fill-rule="evenodd" d="M7.16 15.36c.86 0 1.55.7 1.55 1.58 0 .87-.7 1.58-1.55 1.58-.86 0-1.55-.7-1.55-1.58 0-.87.7-1.58 1.55-1.58ZM15.66 15.34c.86 0 1.55.71 1.55 1.58 0 .88-.69 1.58-1.55 1.58-.85 0-1.54-.7-1.54-1.58 0-.87.69-1.58 1.54-1.58Z" clip-rule="evenodd"/></svg>