<svg xmlns="http://www.w3.org/2000/svg" width="21" height="21" fill="none" viewBox="0 0 21 21"><path fill="#7A7B7B" d="M17.93 9.1c-.29 0-.52-.17-.52-.38V5.77C17.39-.77 3.45-.7 3.46 5.77v2.95c0 .2-.23.38-.52.38-.28 0-.52-.17-.52-.38V5.77c0-7.72 15.93-7.7 15.93 0v2.95c.03.2-.2.38-.44.38h.02Z"/><path fill="#7A7B7B" d="M4.22 16.22h-1A3.2 3.2 0 0 1 0 12.99v-1.52a3.2 3.2 0 0 1 3.23-3.23h1c.4 0 .75.32.75.76 0 .29-.24.52-.52.52a.54.54 0 0 1-.44-.23h-.8C2 9.29 1 10.28 1 11.52v1.52c0 1.23 1 2.23 2.24 2.23h.79c.08-.15.23-.23.44-.23.28 0 .52.23.52.52 0 .32-.36.67-.76.67v-.01Z"/><path fill="#7A7B7B" d="M4.98 15.7h.99V8.72h-1v6.96Zm1.48.99H4.47a.52.52 0 0 1-.52-.52V8.19c0-.28.24-.52.52-.52h1.99c.28 0 .52.24.52.52v7.98c0 .28-.24.52-.52.52ZM17.73 16.22h-1a.75.75 0 0 1-.75-.76c0-.29.23-.52.52-.52.2 0 .35.12.44.23h.79c1.22 0 2.23-.99 2.23-2.23v-1.52c0-1.22-.99-2.23-2.23-2.23h-.8c-.08.15-.23.23-.43.23a.52.52 0 0 1-.52-.52c0-.4.32-.76.75-.76h1a3.2 3.2 0 0 1 3.22 3.23v1.52a3.24 3.24 0 0 1-3.22 3.3v.03Z"/><path fill="#7A7B7B" d="M14.93 15.7h1V8.72h-1v6.96Zm1.48.99h-1.98a.52.52 0 0 1-.52-.52V8.19c0-.28.23-.52.52-.52h1.98c.29 0 .53.24.53.52v7.98c0 .28-.24.52-.53.52Z"/><path fill="#7A7B7B" d="M16.97 19.68H9.96a.52.52 0 0 1-.53-.52c0-.29.24-.52.53-.52h7c.53 0 .97-.44.97-.96v-1.99c0-.28.23-.52.52-.52.28 0 .52.24.52.52v2.04a2 2 0 0 1-1.98 1.95h-.02Z"/><path fill="#7A7B7B" d="M9.2 18.69a.25.25 0 0 0-.24.23v.53c0 .11.12.23.24.23s.23-.12.23-.23v-.53c0-.08-.03-.15-.08-.15-.03-.03-.12-.08-.15-.08Zm0 1.98c-.67 0-1.23-.55-1.23-1.22v-.53a1.23 1.23 0 0 1 2.1-.87c.24.23.36.55.36.87v.53c0 .67-.56 1.22-1.23 1.22Z"/></svg>