<svg xmlns="http://www.w3.org/2000/svg" width="14" height="18" fill="none" viewBox="0 0 14 18"><path fill="#fff" d="M1.66 11.34a.78.78 0 0 0-.17.31l-.94 2.77h.04l2.9-.88c.09-.02.2-.08.31-.18l7.7-7.38-2.14-2.06-7.69 7.38v.04ZM.52 14.72a.35.35 0 0 1-.16-.08c-.08-.07-.1-.16-.07-.28l.9-2.78c.03-.12.1-.24.18-.35v-.04L9.19 3.7c.06-.03.16-.05.19 0l2.32 2.24c.03.05.05.14 0 .17l-7.86 7.52s-.01.04-.05.03c-.11.06-.22.12-.37.18l-2.89.88c-.05.03-.1.02-.14.01l.14-.01Z"/><path stroke="#fff" stroke-linecap="round" stroke-linejoin="round" stroke-miterlimit="2.61" stroke-width=".36" d="M1.66 11.34a.78.78 0 0 0-.17.31l-.94 2.77h.04l2.9-.88c.09-.02.2-.08.31-.18l7.7-7.38-2.14-2.06-7.69 7.38v.04ZM.52 14.72a.35.35 0 0 1-.16-.08c-.08-.07-.1-.16-.07-.28l.9-2.78c.03-.12.1-.24.18-.35v-.04L9.19 3.7c.06-.03.16-.05.19 0l2.32 2.24c.03.05.05.14 0 .17l-7.86 7.52s-.01.04-.05.03c-.11.06-.22.12-.37.18l-2.89.88c-.05.03-.1.02-.14.01l.14-.01Z"/><path fill="#fff" stroke="#fff" stroke-linecap="round" stroke-linejoin="round" stroke-miterlimit="2.61" stroke-width=".36" d="m10.24 3.16 2.13 2.06.6-.6c.3-.24.26-.69 0-.97L11.86 2.6c-.1-.12-.2-.14-.33-.17a.72.72 0 0 0-.69.18l-.6.6v-.04Zm2.11 2.32-.04-.01-2.32-2.23c-.03-.06-.06-.15 0-.18l.71-.66c.23-.21.58-.3.88-.23.18.04.34.13.45.24l1.13 1.07c.37.35.36.96 0 1.32l-.71.66c-.06.03-.06.03-.1.02Z"/><path fill="#fff" stroke="#fff" stroke-linecap="round" stroke-linejoin="round" stroke-miterlimit="2.61" stroke-width=".36" d="m9.58 3.8 2.13 2.05.48-.45-2.13-2.06-.48.46Zm2.1 2.35h-.04L9.32 3.9c-.03-.05-.06-.15 0-.18l.66-.63c0-.04.05-.03.1-.02l.08.02 2.32 2.24c.04 0 .03.05.02.09l-.02.08-.66.63c0 .05-.05.04-.1.02h-.04ZM2.06 14.08l-.04-.01-1.09-1.05c-.03-.06-.02-.1 0-.14.04-.03.09-.02.13-.01l1.08 1.05c.04.06.03.1.02.14-.01.04-.06.03-.1.02ZM3.78 13.66l-.05-.01-2.28-2.18c-.04-.05-.06-.15 0-.18.05-.03.15-.05.18 0l2.28 2.18c.04.06.06.15 0 .18-.05.03-.05.03-.09.02l-.04-.01Z"/></svg>