<svg xmlns="http://www.w3.org/2000/svg" width="52" height="51" fill="none" viewBox="0 0 52 51"><g clip-path="url(#a)"><path stroke="#6666D2" stroke-miterlimit="22.93" stroke-width="1.89" d="M25.93.94c13.8 0 24.98 10.9 24.98 24.32 0 13.43-11.19 24.31-24.98 24.31C12.13 49.57.94 38.7.94 25.26.94 11.83 12.13.94 25.93.94Z" clip-rule="evenodd"/><path fill="#6666D2" d="M23.69 27.4h4.22V12.83h-4.22V27.4Zm5.14 1.83h-6.06c-.5 0-.92-.41-.92-.92V11.93c0-.5.41-.92.92-.92h6.06c.5 0 .91.41.91.92v16.38c0 .5-.4.92-.91.92ZM23.69 38.09h4.22v-3.65h-4.22v3.65Zm5.14 1.83h-6.06c-.5 0-.92-.4-.92-.91v-5.5c0-.5.41-.9.92-.9h6.06c.5 0 .91.4.91.9v5.5c0 .5-.4.91-.91.91Z"/></g><defs><clipPath id="a"><path fill="#fff" d="M0 0h51.85v50.51H0z"/></clipPath></defs></svg>